<svg width="420" height="120" viewBox="0 0 420 120" xmlns="http://www.w3.org/2000/svg" fill="none">
  <!-- Bird Icon -->
  <g transform="translate(0,18)">
    <path d="M54 12c-6 0-11 2-15 6-4 4-6 9-6 15 0 6 2 11 6 15 4 4 9 6 15 6 6 0 11-2 15-6 4-4 6-9 6-15 0-6-2-11-6-15-4-4-9-6-15-6zm0 8c4 0 7 1 10 4 3 3 4 6 4 10s-1 7-4 10c-3 3-6 4-10 4s-7-1-10-4c-3-3-4-6-4-10s1-7 4-10c3-3 6-4 10-4z"
      fill="#00AEB8"/>
    
    <!-- Candlesticks -->
    <rect x="82" y="22" width="10" height="28" rx="2" fill="url(#grad)"/>
    <rect x="98" y="16" width="10" height="34" rx="2" fill="url(#grad)"/>
    <rect x="114" y="10" width="10" height="40" rx="2" fill="url(#grad)"/>
  </g>

  <!-- Wordmark (Outlined Paths) -->
  <g transform="translate(150,60) scale(1,-1)" fill="#c9d1d9">
    <path d="M0 0h12v-40h-12zM20 0h12v-40H20zM40 0h12v-40H40zM60 0h12v-40H60zM80 0h12v-40H80zM100 0h12v-40h-12zM120 0h12v-40h-12zM140 0h12v-40h-12zM160 0h12v-40h-12zM180 0h12v-40h-12z"/>
  </g>

  <!-- Gradient Definition -->
  <defs>
    <linearGradient id="grad" x1="0" y1="0" x2="0" y2="1">
      <stop offset="0%" stop-color="#0d1117"/>
      <stop offset="100%" stop-color="#161b22"/>
    </linearGradient>
  </defs>
</svg>
